<?xml version="1.0" encoding="utf-8"?>
<!-- Generator: Adobe Illustrator 22.1.0, SVG Export Plug-In . SVG Version: 6.00 Build 0)  -->
<svg version="1.1" id="Layer_1" xmlns="http://www.w3.org/2000/svg" xmlns:xlink="http://www.w3.org/1999/xlink" x="0px" y="0px"
	 viewBox="0 0 1049.2 185.9" style="enable-background:new 0 0 1049.2 185.9;" xml:space="preserve">
<style type="text/css">
	.st0{fill:url(#SVGID_1_);}
	.st1{fill:url(#SVGID_2_);}
	.st2{fill:url(#SVGID_3_);}
	.st3{fill:url(#SVGID_4_);}
	.st4{fill:url(#SVGID_5_);}
	.st5{fill:url(#SVGID_6_);}
	.st6{fill:url(#SVGID_7_);}
	.st7{fill:url(#SVGID_8_);}
	.st8{fill:url(#SVGID_9_);}
	.st9{fill:url(#SVGID_10_);}
	.st10{fill:url(#SVGID_11_);}
	.st11{fill:url(#SVGID_12_);}
	.st12{fill:url(#SVGID_13_);}
	.st13{display:none;}
	.st14{display:inline;fill:#008ECC;}
	.st15{display:inline;fill:url(#SVGID_14_);}
	.st16{display:inline;fill:url(#SVGID_15_);}
	.st17{display:inline;fill:url(#SVGID_16_);}
	.st18{display:inline;}
	.st19{fill:url(#SVGID_17_);}
	.st20{fill:url(#SVGID_18_);}
	.st21{fill:url(#SVGID_19_);}
	.st22{fill:url(#SVGID_20_);}
	.st23{fill:url(#SVGID_21_);}
	.st24{fill:url(#SVGID_22_);}
	.st25{display:inline;fill:url(#SVGID_23_);}
	.st26{display:inline;fill:url(#SVGID_24_);}
	.st27{display:inline;fill:url(#SVGID_25_);}
	.st28{display:inline;fill:#333333;}
	.st29{fill:#333333;}
	.st30{display:none;enable-background:new    ;}
	.st31{fill:url(#SVGID_26_);}
	.st32{fill:url(#SVGID_27_);}
	.st33{fill:url(#SVGID_28_);}
	.st34{fill:url(#SVGID_29_);}
	.st35{fill:url(#SVGID_30_);}
	.st36{fill:url(#SVGID_31_);}
	.st37{fill:url(#SVGID_32_);}
	.st38{fill:url(#SVGID_33_);}
	.st39{fill:url(#SVGID_34_);}
	.st40{fill:url(#SVGID_35_);}
	.st41{fill:url(#SVGID_36_);}
	.st42{fill:url(#SVGID_37_);}
	.st43{fill:url(#SVGID_38_);}
	.st44{fill:url(#SVGID_39_);}
	.st45{fill:url(#SVGID_40_);}
	.st46{fill:url(#SVGID_41_);}
	.st47{fill:url(#SVGID_42_);}
	.st48{fill:url(#SVGID_43_);}
</style>
<g>
	<g>
		<g>
			
				<linearGradient id="SVGID_1_" gradientUnits="userSpaceOnUse" x1="246.7905" y1="2111.2078" x2="246.7905" y2="2007.3188" gradientTransform="matrix(1 0 0 1 -25.08 -1997.314)">
				<stop  offset="0" style="stop-color:#404041"/>
				<stop  offset="0.5052" style="stop-color:#222222"/>
				<stop  offset="0.5192" style="stop-color:#333333"/>
				<stop  offset="0.9842" style="stop-color:#808184"/>
			</linearGradient>
			<path class="st0" d="M211.4,112.2V27.3h-30.3V10h81.2v17.3h-30.3v84.9L211.4,112.2L211.4,112.2z"/>
			
				<linearGradient id="SVGID_2_" gradientUnits="userSpaceOnUse" x1="312.283" y1="2111.2078" x2="312.283" y2="2007.3188" gradientTransform="matrix(1 0 0 1 -25.08 -1997.314)">
				<stop  offset="0" style="stop-color:#404041"/>
				<stop  offset="0.5052" style="stop-color:#222222"/>
				<stop  offset="0.5192" style="stop-color:#333333"/>
				<stop  offset="0.9842" style="stop-color:#808184"/>
			</linearGradient>
			<path class="st1" d="M282.8,112.2h-19.6v-74h18.2v10.5c3.1-5,5.9-8.3,8.4-9.8c2.5-1.6,5.3-2.4,8.5-2.4c4.5,0,8.8,1.2,12.9,3.7
				l-6.1,17.1c-3.3-2.1-6.4-3.2-9.2-3.2c-2.7,0-5.1,0.8-7,2.3s-3.4,4.2-4.5,8.2c-1.1,4-1.6,12.2-1.6,24.8L282.8,112.2L282.8,112.2z"
				/>
			
				<linearGradient id="SVGID_3_" gradientUnits="userSpaceOnUse" x1="370.733" y1="2111.2061" x2="370.733" y2="2007.317" gradientTransform="matrix(1 0 0 1 -25.08 -1997.314)">
				<stop  offset="0" style="stop-color:#404041"/>
				<stop  offset="0.5052" style="stop-color:#222222"/>
				<stop  offset="0.5192" style="stop-color:#333333"/>
				<stop  offset="0.9842" style="stop-color:#808184"/>
			</linearGradient>
			<path class="st2" d="M330.7,60.8l-17.8-3.2c2-7.2,5.4-12.5,10.3-15.9c4.9-3.4,12.1-5.2,21.8-5.2c8.7,0,15.2,1,19.5,3.1
				c4.3,2.1,7.3,4.7,9,7.9c1.7,3.2,2.6,9,2.6,17.5l-0.2,22.9c0,6.5,0.3,11.3,0.9,14.4s1.8,6.4,3.5,9.9H361c-0.5-1.3-1.1-3.2-1.9-5.8
				c-0.3-1.2-0.6-1.9-0.7-2.3c-3.3,3.3-6.9,5.7-10.7,7.3c-3.8,1.6-7.9,2.4-12.2,2.4c-7.6,0-13.6-2.1-18-6.2
				c-4.4-4.1-6.6-9.4-6.6-15.7c0-4.2,1-7.9,3-11.2c2-3.3,4.8-5.8,8.4-7.5c3.6-1.7,8.8-3.3,15.6-4.6c9.2-1.7,15.5-3.3,19-4.8v-2
				c0-3.8-0.9-6.5-2.8-8.1c-1.9-1.6-5.4-2.4-10.5-2.4c-3.5,0-6.2,0.7-8.2,2.1C333.5,54.9,331.9,57.3,330.7,60.8z M356.9,76.7
				c-2.5,0.8-6.5,1.8-11.9,3c-5.4,1.2-9,2.3-10.7,3.4c-2.6,1.8-3.8,4.1-3.8,6.9c0,2.7,1,5.1,3.1,7.1c2,2,4.6,3,7.8,3
				c3.5,0,6.9-1.2,10.1-3.5c2.4-1.8,3.9-3.9,4.7-6.5c0.5-1.7,0.8-4.9,0.8-9.6L356.9,76.7L356.9,76.7z"/>
			
				<linearGradient id="SVGID_4_" gradientUnits="userSpaceOnUse" x1="448.74" y1="2111.208" x2="448.74" y2="2007.318" gradientTransform="matrix(1 0 0 1 -25.08 -1997.314)">
				<stop  offset="0" style="stop-color:#404041"/>
				<stop  offset="0.5052" style="stop-color:#222222"/>
				<stop  offset="0.5192" style="stop-color:#333333"/>
				<stop  offset="0.9842" style="stop-color:#808184"/>
			</linearGradient>
			<path class="st3" d="M459.8,112.2h-18.2v-10.9c-3,4.2-6.6,7.4-10.7,9.4s-8.3,3.1-12.4,3.1c-8.5,0-15.8-3.4-21.9-10.3
				c-6.1-6.9-9.1-16.4-9.1-28.7c0-12.5,3-22.1,8.9-28.6s13.4-9.8,22.4-9.8c8.3,0,15.4,3.4,21.5,10.3V10h19.6L459.8,112.2
				L459.8,112.2z M407.5,73.6c0,7.9,1.1,13.6,3.3,17.2c3.2,5.1,7.6,7.7,13.2,7.7c4.5,0,8.3-1.9,11.5-5.8c3.2-3.8,4.7-9.6,4.7-17.2
				c0-8.5-1.5-14.6-4.6-18.4c-3.1-3.7-7-5.6-11.8-5.6c-4.6,0-8.5,1.8-11.7,5.5C409.1,60.7,407.5,66.2,407.5,73.6z"/>
			
				<linearGradient id="SVGID_5_" gradientUnits="userSpaceOnUse" x1="510.4315" y1="2111.2078" x2="510.4315" y2="2007.3188" gradientTransform="matrix(1 0 0 1 -25.08 -1997.314)">
				<stop  offset="0" style="stop-color:#404041"/>
				<stop  offset="0.5052" style="stop-color:#222222"/>
				<stop  offset="0.5192" style="stop-color:#333333"/>
				<stop  offset="0.9842" style="stop-color:#808184"/>
			</linearGradient>
			<path class="st4" d="M475.6,28.1V10h19.6v18.1H475.6z M475.6,112.2v-74h19.6v74H475.6z"/>
			
				<linearGradient id="SVGID_6_" gradientUnits="userSpaceOnUse" x1="550.4734" y1="2111.207" x2="550.4734" y2="2007.318" gradientTransform="matrix(1 0 0 1 -25.08 -1997.314)">
				<stop  offset="0" style="stop-color:#404041"/>
				<stop  offset="0.5052" style="stop-color:#222222"/>
				<stop  offset="0.5192" style="stop-color:#333333"/>
				<stop  offset="0.9842" style="stop-color:#808184"/>
			</linearGradient>
			<path class="st5" d="M545.6,38.2v15.6h-13.4v29.8c0,6,0.1,9.6,0.4,10.6c0.3,1,0.8,1.8,1.7,2.5c0.9,0.7,2,1,3.3,1
				c1.8,0,4.4-0.6,7.9-1.9l1.7,15.2c-4.6,2-9.7,2.9-15.5,2.9c-3.5,0-6.7-0.6-9.6-1.8c-2.8-1.2-4.9-2.7-6.2-4.6
				c-1.3-1.9-2.2-4.4-2.8-7.6c-0.4-2.3-0.6-6.9-0.6-13.8V53.8h-9V38.2h9V23.5L532.2,12v26.1L545.6,38.2L545.6,38.2z"/>
			
				<linearGradient id="SVGID_7_" gradientUnits="userSpaceOnUse" x1="590.5165" y1="2111.2078" x2="590.5165" y2="2007.3188" gradientTransform="matrix(1 0 0 1 -25.08 -1997.314)">
				<stop  offset="0" style="stop-color:#404041"/>
				<stop  offset="0.5052" style="stop-color:#222222"/>
				<stop  offset="0.5192" style="stop-color:#333333"/>
				<stop  offset="0.9842" style="stop-color:#808184"/>
			</linearGradient>
			<path class="st6" d="M555.6,28.1V10h19.6v18.1H555.6z M555.6,112.2v-74h19.6v74H555.6z"/>
			
				<linearGradient id="SVGID_8_" gradientUnits="userSpaceOnUse" x1="650.4995" y1="2111.207" x2="650.4995" y2="2007.318" gradientTransform="matrix(1 0 0 1 -25.08 -1997.314)">
				<stop  offset="0" style="stop-color:#404041"/>
				<stop  offset="0.5052" style="stop-color:#222222"/>
				<stop  offset="0.5192" style="stop-color:#333333"/>
				<stop  offset="0.9842" style="stop-color:#808184"/>
			</linearGradient>
			<path class="st7" d="M587.2,74.2c0-6.5,1.6-12.8,4.8-18.9s7.8-10.7,13.6-13.9c5.9-3.2,12.4-4.8,19.7-4.8
				c11.2,0,20.4,3.6,27.5,10.9c7.2,7.3,10.7,16.5,10.7,27.6c0,11.2-3.6,20.5-10.8,27.9c-7.2,7.4-16.3,11.1-27.3,11.1
				c-6.8,0-13.3-1.5-19.4-4.6c-6.2-3.1-10.8-7.6-14-13.5C588.8,89.9,587.2,82.7,587.2,74.2z M607.3,75.2c0,7.3,1.7,13,5.2,16.9
				c3.5,3.9,7.8,5.9,12.9,5.9c5.1,0,9.4-2,12.9-5.9c3.5-3.9,5.2-9.6,5.2-17c0-7.3-1.7-12.8-5.2-16.7c-3.5-3.9-7.8-5.9-12.9-5.9
				c-5.1,0-9.4,2-12.9,5.9C609,62.2,607.3,67.9,607.3,75.2z"/>
			
				<linearGradient id="SVGID_9_" gradientUnits="userSpaceOnUse" x1="734.086" y1="2111.2078" x2="734.086" y2="2007.3188" gradientTransform="matrix(1 0 0 1 -25.08 -1997.314)">
				<stop  offset="0" style="stop-color:#404041"/>
				<stop  offset="0.5052" style="stop-color:#222222"/>
				<stop  offset="0.5192" style="stop-color:#333333"/>
				<stop  offset="0.9842" style="stop-color:#808184"/>
			</linearGradient>
			<path class="st8" d="M742.8,112.2h-19.6V74.4c0-8-0.4-13.2-1.3-15.5s-2.2-4.2-4.1-5.5c-1.9-1.3-4.1-2-6.8-2
				c-3.4,0-6.4,0.9-9.1,2.8s-4.5,4.3-5.5,7.4c-1,3.1-1.5,8.7-1.5,17v33.5h-19.6v-74h18.2v10.9c6.5-8.4,14.6-12.6,24.4-12.6
				c4.3,0,8.3,0.8,11.9,2.3c3.6,1.6,6.3,3.5,8.1,6c1.8,2.4,3.1,5.2,3.8,8.2s1.1,7.5,1.1,13.2L742.8,112.2L742.8,112.2z"/>
		</g>
	</g>
	<g>
		
			<linearGradient id="SVGID_10_" gradientUnits="userSpaceOnUse" x1="841.5645" y1="2110.45" x2="841.5645" y2="2008.234" gradientTransform="matrix(1 0 0 1 -25.08 -1997.314)">
			<stop  offset="0" style="stop-color:#404041"/>
			<stop  offset="0.5052" style="stop-color:#222222"/>
			<stop  offset="0.5192" style="stop-color:#333333"/>
			<stop  offset="0.9842" style="stop-color:#808184"/>
		</linearGradient>
		<path class="st9" d="M867.8,113.1h-22.5l-8.9-23.2h-40.9l-8.4,23.2h-21.9L805,10.9h21.8L867.8,113.1z M829.8,72.7l-14.1-37.9
			l-13.8,37.9H829.8z"/>
		
			<linearGradient id="SVGID_11_" gradientUnits="userSpaceOnUse" x1="929.5031" y1="2112.123" x2="929.5031" y2="2034.733" gradientTransform="matrix(1 0 0 1 -25.08 -1997.314)">
			<stop  offset="0" style="stop-color:#404041"/>
			<stop  offset="0.5052" style="stop-color:#222222"/>
			<stop  offset="0.5192" style="stop-color:#333333"/>
			<stop  offset="0.9842" style="stop-color:#808184"/>
		</linearGradient>
		<path class="st10" d="M869.8,92l19.7-3c0.8,3.8,2.5,6.7,5.1,8.7c2.6,2,6.1,3,10.7,3c5.1,0,8.9-0.9,11.4-2.8c1.7-1.3,2.6-3,2.6-5.2
			c0-1.5-0.5-2.7-1.4-3.7c-1-0.9-3.2-1.8-6.6-2.6c-15.8-3.5-25.8-6.7-30.1-9.6c-5.9-4-8.8-9.6-8.8-16.7c0-6.4,2.5-11.8,7.6-16.2
			c5.1-4.4,12.9-6.6,23.6-6.6c10.1,0,17.7,1.7,22.6,5c4.9,3.3,8.3,8.2,10.2,14.6L918,60.4c-0.8-2.9-2.3-5.1-4.5-6.6
			s-5.4-2.3-9.4-2.3c-5.2,0-8.9,0.7-11.1,2.2c-1.5,1-2.2,2.3-2.2,4c0,1.4,0.7,2.6,2,3.6c1.8,1.3,7.9,3.1,18.3,5.5
			c10.4,2.4,17.7,5.3,21.9,8.7c4.1,3.5,6.1,8.3,6.1,14.6c0,6.8-2.8,12.6-8.5,17.5c-5.7,4.9-14.1,7.3-25.2,7.3c-10.1,0-18.1-2-24-6.1
			C875.5,104.6,871.7,99,869.8,92z"/>
		
			<linearGradient id="SVGID_12_" gradientUnits="userSpaceOnUse" x1="983.7055" y1="2110.4509" x2="983.7055" y2="2008.235" gradientTransform="matrix(1 0 0 1 -25.08 -1997.314)">
			<stop  offset="0" style="stop-color:#404041"/>
			<stop  offset="0.5052" style="stop-color:#222222"/>
			<stop  offset="0.5192" style="stop-color:#333333"/>
			<stop  offset="0.9842" style="stop-color:#808184"/>
		</linearGradient>
		<path class="st11" d="M948.8,29V10.9h19.6V29H948.8z M948.8,113.1v-74h19.6v74L948.8,113.1L948.8,113.1z"/>
		
			<linearGradient id="SVGID_13_" gradientUnits="userSpaceOnUse" x1="1039.5131" y1="2112.124" x2="1039.5131" y2="2034.73" gradientTransform="matrix(1 0 0 1 -25.08 -1997.314)">
			<stop  offset="0" style="stop-color:#404041"/>
			<stop  offset="0.5052" style="stop-color:#222222"/>
			<stop  offset="0.5192" style="stop-color:#333333"/>
			<stop  offset="0.9842" style="stop-color:#808184"/>
		</linearGradient>
		<path class="st12" d="M999.5,61.7l-17.8-3.2c2-7.2,5.4-12.5,10.3-15.9c4.9-3.4,12.1-5.2,21.8-5.2c8.7,0,15.2,1,19.5,3.1
			c4.3,2.1,7.3,4.7,9,7.9s2.6,9,2.6,17.5l-0.2,22.9c0,6.5,0.3,11.3,0.9,14.4c0.6,3.1,1.8,6.4,3.5,9.9h-19.4
			c-0.5-1.3-1.1-3.2-1.9-5.8c-0.3-1.2-0.6-1.9-0.7-2.3c-3.3,3.3-6.9,5.7-10.7,7.3c-3.8,1.6-7.9,2.4-12.2,2.4c-7.6,0-13.6-2.1-18-6.2
			c-4.4-4.1-6.6-9.4-6.6-15.7c0-4.2,1-7.9,3-11.2c2-3.3,4.8-5.8,8.4-7.5s8.8-3.3,15.6-4.6c9.2-1.7,15.5-3.3,19-4.8v-2
			c0-3.8-0.9-6.5-2.8-8.1c-1.9-1.6-5.4-2.4-10.5-2.4c-3.5,0-6.2,0.7-8.2,2.1C1002.3,55.8,1000.7,58.2,999.5,61.7z M1025.7,77.6
			c-2.5,0.8-6.5,1.8-11.9,3s-9,2.3-10.7,3.4c-2.6,1.8-3.8,4.1-3.8,6.9c0,2.7,1,5.1,3.1,7.1c2,2,4.6,3,7.8,3c3.5,0,6.9-1.2,10.1-3.5
			c2.4-1.8,3.9-3.9,4.7-6.5c0.5-1.7,0.8-4.9,0.8-9.6L1025.7,77.6L1025.7,77.6z"/>
	</g>
</g>
<g class="st13">
	<polygon class="st14" points="-138.4,94.6 -202.2,94.6 -210.6,82.8 -146.8,82.8 	"/>
	<polygon class="st14" points="-128.5,72.3 -192.3,72.3 -200.7,60.5 -136.9,60.5 	"/>
	<polygon class="st14" points="-150,114.6 -213.8,114.6 -222.2,102.8 -158.4,102.8 	"/>
	
		<linearGradient id="SVGID_14_" gradientUnits="userSpaceOnUse" x1="-185.5517" y1="2086.032" x2="-113.3267" y2="2086.032" gradientTransform="matrix(1 0 0 1 -25.08 -1997.314)">
		<stop  offset="0.3793" style="stop-color:#26A9E0"/>
		<stop  offset="0.7321" style="stop-color:#008ECC"/>
	</linearGradient>
	<path class="st15" d="M-210.6,82.8c0,0,13.1,11.8,34.2,11.8h38l-8.4-11.8H-210.6z"/>
	
		<linearGradient id="SVGID_15_" gradientUnits="userSpaceOnUse" x1="-197.1627" y1="2106.0186" x2="-124.9377" y2="2106.0186" gradientTransform="matrix(1 0 0 1 -25.08 -1997.314)">
		<stop  offset="0.3793" style="stop-color:#26A9E0"/>
		<stop  offset="0.7321" style="stop-color:#008ECC"/>
	</linearGradient>
	<path class="st16" d="M-222.2,102.8c0,0,13.1,11.8,34.2,11.8h38l-8.4-11.8H-222.2z"/>
	
		<linearGradient id="SVGID_16_" gradientUnits="userSpaceOnUse" x1="-154.6447" y1="2078.864" x2="-122.7307" y2="2046.95" gradientTransform="matrix(1 0 0 1 -25.08 -1997.314)">
		<stop  offset="0.3793" style="stop-color:#26A9E0"/>
		<stop  offset="0.7321" style="stop-color:#008ECC"/>
	</linearGradient>
	<path class="st17" d="M-200.7,60.5c0,0,13.1,11.8,34.2,11.8h38l-8.4-11.8H-200.7z"/>
	<g class="st18">
		
			<linearGradient id="SVGID_17_" gradientUnits="userSpaceOnUse" x1="-181.6927" y1="2020.4294" x2="-145.5607" y2="2020.4294" gradientTransform="matrix(1 0 0 1 -25.08 -1997.314)">
			<stop  offset="0.3793" style="stop-color:#26A9E0"/>
			<stop  offset="0.7321" style="stop-color:#008ECC"/>
		</linearGradient>
		<polygon class="st19" points="-200.2,-11.6 -170.6,44.9 -177.2,57.9 -206.8,1.3 		"/>
		
			<linearGradient id="SVGID_18_" gradientUnits="userSpaceOnUse" x1="-206.0177" y1="2021.9709" x2="-169.8857" y2="2021.9709" gradientTransform="matrix(1 0 0 1 -25.08 -1997.314)">
			<stop  offset="0.3793" style="stop-color:#26A9E0"/>
			<stop  offset="0.7321" style="stop-color:#008ECC"/>
		</linearGradient>
		<polygon class="st20" points="-224.5,-10.1 -195,46.5 -201.5,59.4 -231.1,2.8 		"/>
		
			<linearGradient id="SVGID_19_" gradientUnits="userSpaceOnUse" x1="-158.6017" y1="2021.465" x2="-122.4697" y2="2021.465" gradientTransform="matrix(1 0 0 1 -25.08 -1997.314)">
			<stop  offset="0.3793" style="stop-color:#26A9E0"/>
			<stop  offset="0.7321" style="stop-color:#008ECC"/>
		</linearGradient>
		<polygon class="st21" points="-177.1,-10.6 -147.5,46 -154.1,58.9 -183.7,2.3 		"/>
		
			<linearGradient id="SVGID_20_" gradientUnits="userSpaceOnUse" x1="980.6919" y1="-1194.3265" x2="1052.9177" y2="-1194.3265" gradientTransform="matrix(-0.4631 -0.8863 0.8863 -0.4631 1340.7073 371.217)">
			<stop  offset="0.3793" style="stop-color:#26A9E0"/>
			<stop  offset="0.7321" style="stop-color:#008ECC"/>
		</linearGradient>
		<path class="st22" d="M-177.2,57.9c0,0,4.4-17.1-5.4-35.8l-17.6-33.7l-6.6,12.9L-177.2,57.9z"/>
		
			<linearGradient id="SVGID_21_" gradientUnits="userSpaceOnUse" x1="969.0811" y1="-1174.3406" x2="1041.3068" y2="-1174.3406" gradientTransform="matrix(-0.4631 -0.8863 0.8863 -0.4631 1340.7073 371.217)">
			<stop  offset="0.3793" style="stop-color:#26A9E0"/>
			<stop  offset="0.7321" style="stop-color:#008ECC"/>
		</linearGradient>
		<path class="st23" d="M-154.1,58.9c0,0,4.4-17.1-5.4-35.8l-17.6-33.7l-6.6,12.9L-154.1,58.9z"/>
		
			<linearGradient id="SVGID_22_" gradientUnits="userSpaceOnUse" x1="1011.5975" y1="-1201.494" x2="1043.5129" y2="-1233.4094" gradientTransform="matrix(-0.4631 -0.8863 0.8863 -0.4631 1340.7073 371.217)">
			<stop  offset="0.3793" style="stop-color:#26A9E0"/>
			<stop  offset="0.7321" style="stop-color:#008ECC"/>
		</linearGradient>
		<path class="st24" d="M-201.5,59.4c0,0,4.4-17.1-5.4-35.8l-17.6-33.7l-6.6,12.9L-201.5,59.4z"/>
	</g>
	<polygon class="st14" points="-266.3,94 -230.7,40.9 -216.3,40.5 -251.8,93.6 	"/>
	<polygon class="st14" points="-253.2,114.6 -217.7,61.6 -203.3,61.2 -238.8,114.2 	"/>
	<polygon class="st14" points="-276.4,73.2 -240.9,20.2 -226.4,19.8 -261.9,72.8 	"/>
	
		<linearGradient id="SVGID_23_" gradientUnits="userSpaceOnUse" x1="3423.2288" y1="1235.1592" x2="3495.4521" y2="1235.1592" gradientTransform="matrix(-0.5563 0.831 -0.831 -0.5563 2709.5901 -2120.3303)">
		<stop  offset="0.3793" style="stop-color:#26A9E0"/>
		<stop  offset="0.7321" style="stop-color:#008ECC"/>
	</linearGradient>
	<path class="st25" d="M-216.3,40.5c0,0-17.1,4.3-28.8,21.9L-266.3,94l14.5-0.4L-216.3,40.5z"/>
	
		<linearGradient id="SVGID_24_" gradientUnits="userSpaceOnUse" x1="3411.6177" y1="1255.1448" x2="3483.8413" y2="1255.1448" gradientTransform="matrix(-0.5563 0.831 -0.831 -0.5563 2709.5901 -2120.3303)">
		<stop  offset="0.3793" style="stop-color:#26A9E0"/>
		<stop  offset="0.7321" style="stop-color:#008ECC"/>
	</linearGradient>
	<path class="st26" d="M-226.4,19.8c0,0-17.1,4.3-28.8,21.9l-21.1,31.6l14.5-0.4L-226.4,19.8z"/>
	
		<linearGradient id="SVGID_25_" gradientUnits="userSpaceOnUse" x1="3454.1355" y1="1227.9917" x2="3486.0483" y2="1196.0792" gradientTransform="matrix(-0.5563 0.831 -0.831 -0.5563 2709.5901 -2120.3303)">
		<stop  offset="0.3793" style="stop-color:#26A9E0"/>
		<stop  offset="0.7321" style="stop-color:#008ECC"/>
	</linearGradient>
	<path class="st27" d="M-203.3,61.2c0,0-17.1,4.3-28.8,21.9l-21.1,31.6l14.5-0.4L-203.3,61.2z"/>
</g>
<g class="st13">
	<path class="st28" d="M1159.4,109.8c-0.3,4.4-1.9,7.9-4.9,10.4s-6.8,3.8-11.6,3.8c-5.2,0-9.4-1.8-12.4-5.3s-4.5-8.4-4.5-14.5v-2.5
		c0-3.9,0.7-7.4,2.1-10.4s3.4-5.3,5.9-6.9c2.6-1.6,5.6-2.4,9-2.4c4.7,0,8.5,1.3,11.4,3.8s4.5,6.1,5,10.6h-8.4
		c-0.2-2.6-0.9-4.5-2.2-5.7c-1.3-1.2-3.2-1.8-5.8-1.8c-2.8,0-4.9,1-6.3,3s-2.1,5.1-2.1,9.4v3.1c0,4.4,0.7,7.6,2,9.7s3.4,3.1,6.3,3.1
		c2.6,0,4.5-0.6,5.8-1.8s2-3,2.2-5.5L1159.4,109.8L1159.4,109.8z"/>
	<path class="st28" d="M1209.6,123.4h-8.4v-17.5h-16.4v17.5h-8.4V82.6h8.4v16.5h16.4V82.6h8.4L1209.6,123.4L1209.6,123.4z"/>
	<path class="st28" d="M1237.4,123.4h-8.4V82.6h8.4V123.4z"/>
	<path class="st28" d="M1280.3,115h-14.8l-2.8,8.4h-8.9l15.2-40.8h7.8l15.3,40.8h-8.9L1280.3,115z M1267.8,108.2h10.2l-5.1-15.3
		L1267.8,108.2z"/>
	<path class="st28" d="M1340.6,123.4h-8.4l-16.4-26.9v26.9h-8.4V82.6h8.4l16.4,26.9V82.6h8.4L1340.6,123.4L1340.6,123.4z"/>
	<path class="st28" d="M1391.7,118.2c-1.5,1.8-3.7,3.2-6.4,4.2c-2.8,1-5.8,1.5-9.2,1.5c-3.5,0-6.6-0.8-9.3-2.3s-4.7-3.8-6.2-6.7
		c-1.4-2.9-2.2-6.4-2.2-10.3v-2.8c0-4.1,0.7-7.6,2.1-10.6c1.4-3,3.4-5.3,5.9-6.8s5.6-2.4,9.1-2.4c4.8,0,8.6,1.2,11.4,3.5
		s4.3,5.7,4.9,10.1h-8.2c-0.4-2.3-1.2-4-2.5-5.1c-1.3-1.1-3-1.6-5.3-1.6c-2.9,0-5,1.1-6.5,3.2c-1.5,2.2-2.3,5.3-2.3,9.6v2.6
		c0,4.3,0.8,7.5,2.4,9.7s4,3.3,7.2,3.3c3.2,0,5.4-0.7,6.8-2v-7h-7.7V102h16.1L1391.7,118.2L1391.7,118.2L1391.7,118.2z"/>
	<path class="st28" d="M1446.8,82.6l10.5,29.6l10.4-29.6h11.1v40.8h-8.4v-11.2l0.8-19.3l-11,30.4h-5.8l-11-30.4l0.8,19.2v11.2h-8.4
		V82.6H1446.8z"/>
	<path class="st28" d="M1521.2,115h-14.8l-2.8,8.4h-8.9l15.2-40.8h7.8l15.3,40.8h-8.9L1521.2,115z M1508.7,108.2h10.2l-5.1-15.3
		L1508.7,108.2z"/>
	<path class="st28" d="M1557.2,123.4h-8.4V82.6h8.4V123.4z"/>
	<path class="st28" d="M1602.3,123.4V82.6h14.3c5,0,8.7,0.9,11.3,2.8s3.8,4.7,3.8,8.3c0,2-0.5,3.8-1.5,5.3s-2.5,2.6-4.3,3.4
		c2.1,0.5,3.7,1.6,5,3.2s1.8,3.5,1.8,5.8c0,3.9-1.3,6.9-3.8,8.9c-2.5,2-6.1,3-10.7,3.1L1602.3,123.4L1602.3,123.4L1602.3,123.4z
		 M1610.7,99.7h6.2c4.2-0.1,6.4-1.8,6.4-5.1c0-1.9-0.5-3.2-1.6-4s-2.8-1.2-5.1-1.2h-5.9V99.7L1610.7,99.7z M1610.7,105.6v11h7.2
		c2,0,3.5-0.5,4.6-1.4s1.7-2.2,1.7-3.9c0-3.7-1.9-5.6-5.8-5.7L1610.7,105.6L1610.7,105.6z"/>
	<path class="st28" d="M1665.6,108.5h-6.7v14.9h-8.4V82.6h15.2c4.8,0,8.5,1.1,11.2,3.2s3.9,5.2,3.9,9.1c0,2.8-0.6,5.1-1.8,7
		s-3,3.3-5.5,4.4l8.8,16.7v0.4h-9L1665.6,108.5z M1658.9,101.6h6.8c2.1,0,3.8-0.5,4.9-1.6s1.7-2.6,1.7-4.4c0-1.9-0.5-3.4-1.6-4.5
		s-2.8-1.7-5-1.7h-6.8L1658.9,101.6C1658.9,101.6,1658.9,101.6,1658.9,101.6z"/>
	<path class="st28" d="M1721.7,115h-14.8l-2.8,8.4h-8.9l15.2-40.8h7.8l15.3,40.8h-8.9L1721.7,115z M1709.2,108.2h10.2l-5.1-15.3
		L1709.2,108.2z"/>
	<path class="st28" d="M1781.9,123.4h-8.4l-16.4-26.9v26.9h-8.4V82.6h8.4l16.4,26.9V82.6h8.4L1781.9,123.4L1781.9,123.4z"/>
	<path class="st28" d="M1832.8,109.8c-0.3,4.4-1.9,7.9-4.9,10.4s-6.8,3.8-11.6,3.8c-5.2,0-9.4-1.8-12.4-5.3s-4.5-8.4-4.5-14.5v-2.5
		c0-3.9,0.7-7.4,2.1-10.4c1.4-3,3.4-5.3,5.9-6.9s5.6-2.4,9-2.4c4.7,0,8.5,1.3,11.4,3.8c2.9,2.5,4.5,6.1,5,10.6h-8.4
		c-0.2-2.6-0.9-4.5-2.2-5.7c-1.3-1.2-3.2-1.8-5.8-1.8c-2.8,0-4.9,1-6.3,3s-2.1,5.1-2.1,9.4v3.1c0,4.4,0.7,7.6,2,9.7s3.4,3.1,6.3,3.1
		c2.6,0,4.5-0.6,5.8-1.8c1.3-1.2,2-3,2.2-5.5L1832.8,109.8L1832.8,109.8C1832.8,109.8,1832.8,109.8,1832.8,109.8z"/>
	<path class="st28" d="M1883.1,123.4h-8.4v-17.5h-16.4v17.5h-8.4V82.6h8.4v16.5h16.4V82.6h8.4V123.4z"/>
</g>
<g>
	<path class="st29" d="M240.4,160.6c-0.5,4.4-2.1,7.8-4.9,10.2c-2.7,2.4-6.3,3.6-10.9,3.6c-4.9,0-8.8-1.8-11.8-5.3
		c-3-3.5-4.4-8.2-4.4-14.1v-4c0-3.9,0.7-7.2,2.1-10.2c1.4-2.9,3.3-5.2,5.9-6.7c2.5-1.6,5.4-2.4,8.8-2.4c4.4,0,7.9,1.2,10.6,3.7
		c2.7,2.5,4.2,5.9,4.6,10.2h-5.5c-0.5-3.3-1.5-5.7-3.1-7.2s-3.8-2.2-6.6-2.2c-3.5,0-6.2,1.3-8.2,3.9c-2,2.6-3,6.3-3,11v4
		c0,4.5,0.9,8.1,2.8,10.7c1.9,2.7,4.5,4,7.9,4c3,0,5.4-0.7,7-2.1c1.6-1.4,2.7-3.8,3.2-7.2L240.4,160.6L240.4,160.6z"/>
	<path class="st29" d="M255.2,146.7c2.3-2.9,5.4-4.3,9.1-4.3c6.5,0,9.8,3.7,9.9,11v20.4h-5.3v-20.4c0-2.2-0.5-3.9-1.5-4.9
		c-1-1.1-2.5-1.6-4.7-1.6c-1.7,0-3.2,0.5-4.5,1.4c-1.3,0.9-2.3,2.1-3,3.6v22H250V130h5.3L255.2,146.7L255.2,146.7z"/>
	<path class="st29" d="M285,134.8c0-0.9,0.3-1.6,0.8-2.2c0.5-0.6,1.3-0.9,2.3-0.9c1,0,1.8,0.3,2.3,0.9c0.5,0.6,0.8,1.3,0.8,2.2
		c0,0.9-0.3,1.6-0.8,2.1s-1.3,0.9-2.3,0.9s-1.8-0.3-2.3-0.9C285.3,136.3,285,135.6,285,134.8z M290.7,173.8h-5.3V143h5.3V173.8z"/>
	<path class="st29" d="M321.1,173.8c-0.3-0.6-0.6-1.7-0.7-3.2c-2.4,2.5-5.4,3.8-8.8,3.8c-3,0-5.5-0.9-7.5-2.6
		c-1.9-1.7-2.9-3.9-2.9-6.5c0-3.2,1.2-5.7,3.7-7.5c2.4-1.8,5.9-2.7,10.3-2.7h5.1v-2.4c0-1.8-0.6-3.3-1.7-4.4
		c-1.1-1.1-2.7-1.6-4.9-1.6c-1.9,0-3.5,0.5-4.7,1.4s-1.9,2.1-1.9,3.4h-5.3c0-1.5,0.5-3,1.6-4.5c1.1-1.4,2.6-2.6,4.4-3.4
		c1.9-0.8,3.9-1.3,6.2-1.3c3.5,0,6.3,0.9,8.3,2.7c2,1.8,3.1,4.2,3.1,7.3v14.2c0,2.8,0.4,5.1,1.1,6.7v0.5L321.1,173.8L321.1,173.8z
		 M312.4,169.8c1.7,0,3.2-0.4,4.7-1.3s2.6-2,3.2-3.3v-6.3h-4.1c-6.5,0-9.7,1.9-9.7,5.7c0,1.7,0.5,2.9,1.7,3.9
		C309.2,169.3,310.6,169.8,312.4,169.8z"/>
	<path class="st29" d="M341.7,143l0.2,3.9c2.4-3,5.4-4.4,9.2-4.4c6.5,0,9.8,3.7,9.9,11v20.4h-5.3v-20.4c0-2.2-0.5-3.9-1.5-4.9
		c-1-1.1-2.5-1.6-4.7-1.6c-1.7,0-3.2,0.5-4.5,1.4c-1.3,0.9-2.3,2.1-3,3.6v22h-5.3V143L341.7,143L341.7,143z"/>
	<path class="st29" d="M370.6,158.1c0-4.8,1.1-8.6,3.3-11.5c2.2-2.8,5.2-4.3,8.8-4.3c3.8,0,6.7,1.3,8.8,4l0.3-3.4h4.8V173
		c0,4-1.2,7.1-3.5,9.4c-2.4,2.3-5.5,3.4-9.5,3.4c-2.2,0-4.4-0.5-6.5-1.4s-3.8-2.2-4.9-3.9l2.7-3.2c2.3,2.8,5,4.2,8.3,4.2
		c2.6,0,4.6-0.7,6-2.2c1.4-1.4,2.1-3.5,2.1-6.1v-2.6c-2.1,2.4-5,3.6-8.6,3.6c-3.6,0-6.5-1.5-8.8-4.4
		C371.7,167.1,370.6,163.1,370.6,158.1z M375.9,158.7c0,3.5,0.7,6.2,2.1,8.2c1.4,2,3.4,3,6,3c3.3,0,5.8-1.5,7.3-4.5v-14.1
		c-1.6-2.9-4-4.4-7.3-4.4c-2.6,0-4.6,1-6,3C376.6,151.8,375.9,154.8,375.9,158.7z"/>
	<path class="st29" d="M432.7,132.3l13.6,33.8l13.6-33.8h7.1v41.5h-5.5v-16.1l0.5-17.4l-13.6,33.6h-4.2l-13.6-33.5l0.5,17.3v16.1
		h-5.5v-41.5L432.7,132.3L432.7,132.3z"/>
	<path class="st29" d="M497.7,173.8c-0.3-0.6-0.6-1.7-0.7-3.2c-2.4,2.5-5.4,3.8-8.8,3.8c-3,0-5.5-0.9-7.5-2.6
		c-1.9-1.7-2.9-3.9-2.9-6.5c0-3.2,1.2-5.7,3.7-7.5c2.4-1.8,5.9-2.7,10.3-2.7h5.1v-2.4c0-1.8-0.6-3.3-1.7-4.4
		c-1.1-1.1-2.7-1.6-4.9-1.6c-1.9,0-3.5,0.5-4.7,1.4s-1.9,2.1-1.9,3.4h-5.3c0-1.5,0.5-3,1.6-4.5c1.1-1.4,2.6-2.6,4.4-3.4
		c1.9-0.8,3.9-1.3,6.2-1.3c3.5,0,6.3,0.9,8.3,2.7c2,1.8,3.1,4.2,3.1,7.3v14.2c0,2.8,0.4,5.1,1.1,6.7v0.5L497.7,173.8L497.7,173.8z
		 M488.9,169.8c1.7,0,3.2-0.4,4.7-1.3s2.6-2,3.2-3.3v-6.3h-4.1c-6.5,0-9.7,1.9-9.7,5.7c0,1.7,0.5,2.9,1.7,3.9
		C485.8,169.3,487.2,169.8,488.9,169.8z"/>
	<path class="st29" d="M513.3,134.8c0-0.9,0.3-1.6,0.8-2.2c0.5-0.6,1.3-0.9,2.3-0.9c1,0,1.8,0.3,2.3,0.9c0.5,0.6,0.8,1.3,0.8,2.2
		c0,0.9-0.3,1.6-0.8,2.1s-1.3,0.9-2.3,0.9s-1.8-0.3-2.3-0.9C513.6,136.3,513.3,135.6,513.3,134.8z M519,173.8h-5.3V143h5.3V173.8z"
		/>
	<path class="st29" d="M548.5,173.8v-41.5h13.6c4.5,0,7.9,0.9,10.2,2.8c2.3,1.9,3.4,4.6,3.4,8.3c0,1.9-0.6,3.6-1.7,5.1
		c-1.1,1.5-2.6,2.6-4.5,3.5c2.2,0.6,4,1.8,5.3,3.6c1.3,1.8,2,3.9,2,6.3c0,3.7-1.2,6.6-3.6,8.8s-5.8,3.2-10.2,3.2L548.5,173.8
		L548.5,173.8z M554,150h8.3c2.4,0,4.3-0.6,5.7-1.8c1.4-1.2,2.2-2.8,2.2-4.9c0-2.3-0.7-3.9-2-5c-1.3-1-3.4-1.6-6.1-1.6H554V150z
		 M554,154.4v14.9h9c2.5,0,4.6-0.7,6-2s2.2-3.1,2.2-5.5c0-5-2.7-7.5-8.1-7.5H554z"/>
	<path class="st29" d="M601.8,147.7c-0.8-0.1-1.7-0.2-2.6-0.2c-3.5,0-5.8,1.5-7,4.4v21.9h-5.3V143h5.1l0.1,3.6
		c1.7-2.8,4.2-4.1,7.3-4.1c1,0,1.8,0.1,2.3,0.4L601.8,147.7L601.8,147.7z"/>
	<path class="st29" d="M627.5,173.8c-0.3-0.6-0.6-1.7-0.7-3.2c-2.4,2.5-5.4,3.8-8.8,3.8c-3,0-5.5-0.9-7.5-2.6
		c-1.9-1.7-2.9-3.9-2.9-6.5c0-3.2,1.2-5.7,3.7-7.5c2.4-1.8,5.9-2.7,10.3-2.7h5.1v-2.4c0-1.8-0.6-3.3-1.7-4.4
		c-1.1-1.1-2.7-1.6-4.9-1.6c-1.9,0-3.5,0.5-4.7,1.4s-1.9,2.1-1.9,3.4h-5.3c0-1.5,0.5-3,1.6-4.5c1.1-1.4,2.6-2.6,4.4-3.4
		c1.9-0.8,3.9-1.3,6.2-1.3c3.5,0,6.3,0.9,8.3,2.7c2,1.8,3.1,4.2,3.1,7.3v14.2c0,2.8,0.4,5.1,1.1,6.7v0.5L627.5,173.8L627.5,173.8z
		 M618.7,169.8c1.7,0,3.2-0.4,4.7-1.3s2.6-2,3.2-3.3v-6.3h-4.1c-6.5,0-9.7,1.9-9.7,5.7c0,1.7,0.5,2.9,1.7,3.9
		C615.6,169.3,617,169.8,618.7,169.8z"/>
	<path class="st29" d="M648.1,143l0.2,3.9c2.4-3,5.4-4.4,9.2-4.4c6.5,0,9.8,3.7,9.9,11v20.4h-5.3v-20.4c0-2.2-0.5-3.9-1.5-4.9
		c-1-1.1-2.5-1.6-4.7-1.6c-1.7,0-3.2,0.5-4.5,1.4c-1.3,0.9-2.3,2.1-3,3.6v22h-5.3V143L648.1,143L648.1,143z"/>
	<path class="st29" d="M690.6,170c1.9,0,3.5-0.6,4.9-1.7c1.4-1.1,2.2-2.6,2.3-4.3h5c-0.1,1.8-0.7,3.4-1.8,5
		c-1.1,1.6-2.6,2.9-4.5,3.8s-3.8,1.4-5.9,1.4c-4.2,0-7.5-1.4-10-4.2c-2.5-2.8-3.7-6.6-3.7-11.5v-0.9c0-3,0.5-5.7,1.7-8
		c1.1-2.3,2.7-4.1,4.7-5.4c2.1-1.3,4.5-1.9,7.3-1.9c3.5,0,6.3,1,8.6,3.1c2.3,2.1,3.5,4.8,3.7,8.1h-5c-0.2-2-0.9-3.6-2.3-4.9
		c-1.4-1.3-3-1.9-5-1.9c-2.7,0-4.8,1-6.2,2.9c-1.5,1.9-2.2,4.7-2.2,8.4v1c0,3.6,0.7,6.3,2.2,8.2C685.8,169.1,687.8,170,690.6,170z"
		/>
	<path class="st29" d="M716.9,146.7c2.3-2.9,5.4-4.3,9.1-4.3c6.5,0,9.8,3.7,9.9,11v20.4h-5.3v-20.4c0-2.2-0.5-3.9-1.5-4.9
		c-1-1.1-2.5-1.6-4.7-1.6c-1.7,0-3.2,0.5-4.5,1.4c-1.3,0.9-2.3,2.1-3,3.6v22h-5.3V130h5.3L716.9,146.7L716.9,146.7z"/>
</g>
<text transform="matrix(1 0 0 1 189.0961 -152.2319)" class="st30" style="font-family:'Roboto-Regular'; font-size:58.3264px; letter-spacing:1;">Chiang Mai Branch</text>
<linearGradient id="SVGID_26_" gradientUnits="userSpaceOnUse" x1="93.9966" y1="83.994" x2="168.214" y2="83.994">
	<stop  offset="0.3793" style="stop-color:#26A9E0"/>
	<stop  offset="0.7321" style="stop-color:#008ECC"/>
</linearGradient>
<polygon class="st31" points="161.2,78 161.2,78 108.1,78 101,78 94,78 101,90 154.3,90 161.2,90 168.2,90 "/>
<linearGradient id="SVGID_27_" gradientUnits="userSpaceOnUse" x1="81.0189" y1="78.2994" x2="81.0189" y2="8.6703">
	<stop  offset="0.3793" style="stop-color:#26A9E0"/>
	<stop  offset="0.7321" style="stop-color:#008ECC"/>
</linearGradient>
<polygon class="st32" points="101.1,66.4 101.1,66.4 74.7,20.7 71.2,14.8 67.8,8.7 60.9,20.7 87.4,66.4 90.8,72.3 94.3,78.3 "/>
<linearGradient id="SVGID_28_" gradientUnits="userSpaceOnUse" x1="107.6799" y1="78.0406" x2="107.6799" y2="8.4115">
	<stop  offset="0.3793" style="stop-color:#26A9E0"/>
	<stop  offset="0.7321" style="stop-color:#008ECC"/>
</linearGradient>
<polygon class="st33" points="127.8,66.1 127.8,66.1 101.3,20.4 97.9,14.4 94.4,8.4 87.6,20.3 114,66 117.5,72.1 120.9,78 "/>
<linearGradient id="SVGID_29_" gradientUnits="userSpaceOnUse" x1="134.4055" y1="78.0406" x2="134.4055" y2="8.4115">
	<stop  offset="0.3793" style="stop-color:#26A9E0"/>
	<stop  offset="0.7321" style="stop-color:#008ECC"/>
</linearGradient>
<polygon class="st34" points="154.5,66.1 154.5,66.1 128.1,20.4 124.6,14.4 121.1,8.4 114.3,20.3 140.7,66 144.2,72.1 147.7,78 "/>
<linearGradient id="SVGID_30_" gradientUnits="userSpaceOnUse" x1="70.6652" y1="78.0406" x2="70.6652" y2="135.6334">
	<stop  offset="0.3793" style="stop-color:#26A9E0"/>
	<stop  offset="0.7321" style="stop-color:#008ECC"/>
</linearGradient>
<polygon class="st35" points="80.6,78 80.6,78 54,123.7 50.5,129.7 47,135.6 60.8,135.6 87.4,90.1 90.8,84 94.3,78 "/>
<linearGradient id="SVGID_31_" gradientUnits="userSpaceOnUse" x1="57.3994" y1="55.2623" x2="57.3994" y2="112.8551">
	<stop  offset="0.3793" style="stop-color:#26A9E0"/>
	<stop  offset="0.7321" style="stop-color:#008ECC"/>
</linearGradient>
<polygon class="st36" points="67.2,55.3 67.2,55.3 40.7,100.8 37.2,106.8 33.7,112.9 47.4,112.9 74.1,67.2 77.6,61.2 81.1,55.3 "/>
<linearGradient id="SVGID_32_" gradientUnits="userSpaceOnUse" x1="44.0689" y1="31.9663" x2="44.0689" y2="89.5591">
	<stop  offset="0.3793" style="stop-color:#26A9E0"/>
	<stop  offset="0.7321" style="stop-color:#008ECC"/>
</linearGradient>
<polygon class="st37" points="53.9,32 53.9,32 27.4,77.7 23.9,83.6 20.4,89.6 34.1,89.6 60.8,44 64.3,38 67.8,32 "/>
<linearGradient id="SVGID_33_" gradientUnits="userSpaceOnUse" x1="81.0836" y1="106.9664" x2="154.5954" y2="106.9664">
	<stop  offset="0.3793" style="stop-color:#26A9E0"/>
	<stop  offset="0.7321" style="stop-color:#008ECC"/>
</linearGradient>
<polygon class="st38" points="147.7,100.9 147.7,100.9 94.9,100.9 87.9,100.9 81.1,100.9 87.9,113 140.7,113 147.7,113 154.6,113 
	"/>
<linearGradient id="SVGID_34_" gradientUnits="userSpaceOnUse" x1="67.7532" y1="130.2624" x2="141.2649" y2="130.2624">
	<stop  offset="0.3793" style="stop-color:#26A9E0"/>
	<stop  offset="0.7321" style="stop-color:#008ECC"/>
</linearGradient>
<polygon class="st39" points="134.4,124.2 134.4,124.2 81.6,124.2 74.6,124.2 67.8,124.2 74.6,136.3 127.4,136.3 134.4,136.3 
	141.3,136.3 "/>
<linearGradient id="SVGID_35_" gradientUnits="userSpaceOnUse" x1="93.9966" y1="83.994" x2="117.7357" y2="83.994">
	<stop  offset="0" style="stop-color:#26A9E0"/>
	<stop  offset="0.585" style="stop-color:#008ECC"/>
	<stop  offset="1" style="stop-color:#056997"/>
</linearGradient>
<path class="st40" d="M94,78c0,0,6.2,8.5,23.7,12H101L94,78z"/>
<linearGradient id="SVGID_36_" gradientUnits="userSpaceOnUse" x1="250.3042" y1="368.3752" x2="273.859" y2="368.3752" gradientTransform="matrix(-0.5067 -0.8621 0.8621 -0.5067 -91.2059 477.73)">
	<stop  offset="0" style="stop-color:#26A9E0"/>
	<stop  offset="0.5722" style="stop-color:#008ECC"/>
	<stop  offset="1" style="stop-color:#056997"/>
</linearGradient>
<path class="st41" d="M94.4,78.3c0,0,4.1-9.6-1.7-26.3l8.4,14.3L94.4,78.3z"/>
<linearGradient id="SVGID_37_" gradientUnits="userSpaceOnUse" x1="-89.1397" y1="333.3423" x2="-65.5849" y2="333.3423" gradientTransform="matrix(-0.5075 0.8617 -0.8617 -0.5075 331.2672 321.0179)">
	<stop  offset="0" style="stop-color:#26A9E0"/>
	<stop  offset="0.5733" style="stop-color:#008ECC"/>
	<stop  offset="1" style="stop-color:#056997"/>
</linearGradient>
<path class="st42" d="M94.4,78.1c0,0-10.4,1-22.2,14.3L80.6,78L94.4,78.1z"/>
<linearGradient id="SVGID_38_" gradientUnits="userSpaceOnUse" x1="-101.9709" y1="356.4405" x2="-78.4161" y2="356.4405" gradientTransform="matrix(-0.5075 0.8617 -0.8617 -0.5075 331.2672 321.0179)">
	<stop  offset="0" style="stop-color:#26A9E0"/>
	<stop  offset="0.5733" style="stop-color:#008ECC"/>
	<stop  offset="1" style="stop-color:#056997"/>
</linearGradient>
<path class="st43" d="M81,55.3c0,0-10.4,1-22.2,14.3l8.4-14.3L81,55.3z"/>
<linearGradient id="SVGID_39_" gradientUnits="userSpaceOnUse" x1="-115.3116" y1="379.6936" x2="-91.7568" y2="379.6936" gradientTransform="matrix(-0.5075 0.8617 -0.8617 -0.5075 331.2672 321.0179)">
	<stop  offset="0" style="stop-color:#26A9E0"/>
	<stop  offset="0.5733" style="stop-color:#008ECC"/>
	<stop  offset="1" style="stop-color:#056997"/>
</linearGradient>
<path class="st44" d="M67.8,32c0,0-10.4,1-22.2,14.3L53.9,32L67.8,32z"/>
<linearGradient id="SVGID_40_" gradientUnits="userSpaceOnUse" x1="237.0184" y1="391.4915" x2="260.5733" y2="391.4915" gradientTransform="matrix(-0.5067 -0.8621 0.8621 -0.5067 -91.2059 477.73)">
	<stop  offset="0" style="stop-color:#26A9E0"/>
	<stop  offset="0.5722" style="stop-color:#008ECC"/>
	<stop  offset="1" style="stop-color:#056997"/>
</linearGradient>
<path class="st45" d="M121.1,78c0,0,4.1-9.6-1.7-26.3l8.4,14.3L121.1,78z"/>
<linearGradient id="SVGID_41_" gradientUnits="userSpaceOnUse" x1="223.5095" y1="414.4766" x2="247.0643" y2="414.4766" gradientTransform="matrix(-0.5067 -0.8621 0.8621 -0.5067 -91.2059 477.73)">
	<stop  offset="0" style="stop-color:#26A9E0"/>
	<stop  offset="0.5722" style="stop-color:#008ECC"/>
	<stop  offset="1" style="stop-color:#056997"/>
</linearGradient>
<path class="st46" d="M147.7,78c0,0,4.1-9.6-1.7-26.3l8.4,14.3L147.7,78z"/>
<linearGradient id="SVGID_42_" gradientUnits="userSpaceOnUse" x1="81.0836" y1="106.9664" x2="104.6385" y2="106.9664">
	<stop  offset="0" style="stop-color:#26A9E0"/>
	<stop  offset="0.585" style="stop-color:#008ECC"/>
	<stop  offset="1" style="stop-color:#056997"/>
</linearGradient>
<path class="st47" d="M81.1,101c0,0,6.2,8.4,23.6,11.9H88.1L81.1,101z"/>
<linearGradient id="SVGID_43_" gradientUnits="userSpaceOnUse" x1="67.7532" y1="130.2624" x2="91.308" y2="130.2624">
	<stop  offset="0" style="stop-color:#26A9E0"/>
	<stop  offset="0.585" style="stop-color:#008ECC"/>
	<stop  offset="1" style="stop-color:#056997"/>
</linearGradient>
<path class="st48" d="M67.8,124.3c0,0,6.2,8.4,23.6,11.9H74.7L67.8,124.3z"/>
</svg>
